<?xml version="1.0" standalone="no"?>
<!DOCTYPE svg PUBLIC "-//W3C//DTD SVG 20010904//EN"
 "http://www.w3.org/TR/2001/REC-SVG-20010904/DTD/svg10.dtd">
<svg version="1.0" xmlns="http://www.w3.org/2000/svg"
 width="700.000000pt" height="700.000000pt" viewBox="0 0 700.000000 700.000000"
 preserveAspectRatio="xMidYMid meet">
<metadata>
Created by potrace 1.14, written by Peter Selinger 2001-2017
</metadata>
<g transform="translate(0.000000,700.000000) scale(0.100000,-0.100000)"
fill="#000000" stroke="none">
<path d="M1110 6118 c-213 -22 -390 -147 -475 -338 -51 -112 -49 -30 -49
-1950 0 -982 2 -1810 4 -1840 18 -272 239 -497 516 -525 39 -4 347 -7 685 -7
345 0 636 -4 664 -10 28 -5 61 -11 74 -14 50 -10 153 -73 485 -294 190 -126
362 -237 383 -245 48 -20 146 -22 198 -3 22 8 200 121 396 251 196 130 383
249 415 264 105 48 135 50 705 51 705 0 766 2 846 18 84 17 132 37 203 85 94
62 173 160 213 264 21 54 21 56 34 156 11 77 9 3620 -1 3664 -42 181 -115 290
-259 385 -77 51 -150 76 -257 87 -135 15 -1185 5 -1355 -12 -312 -32 -519
-107 -741 -270 -72 -53 -203 -179 -261 -250 l-33 -40 -42 50 c-244 289 -556
460 -913 500 -33 4 -71 9 -85 11 -98 16 -1208 26 -1350 12z m1290 -592 c19 -3
58 -7 85 -10 177 -21 344 -105 476 -243 154 -159 197 -265 235 -578 9 -73 17
-2975 8 -2975 -4 0 -62 36 -128 79 -201 131 -292 174 -450 211 -120 29 -194
32 -853 33 l-603 0 -1 41 c-1 52 -1 3320 0 3400 l1 58 598 -5 c328 -3 613 -8
632 -11z m3431 -53 c1 -87 1 -3299 0 -3374 l-1 -56 -612 -1 c-716 -1 -735 -2
-887 -43 -133 -37 -248 -94 -409 -201 -56 -38 -110 -72 -118 -75 -14 -5 -15
140 -11 1458 2 805 7 1482 10 1504 3 22 9 67 12 100 25 218 85 347 234 495
172 171 313 229 591 247 52 3 96 7 98 8 2 2 248 4 548 4 l544 2 1 -68z"/>
</g>
</svg>
